<?xml version="1.0" standalone="no"?>
<!DOCTYPE svg PUBLIC "-//W3C//DTD SVG 20010904//EN"
 "http://www.w3.org/TR/2001/REC-SVG-20010904/DTD/svg10.dtd">
<svg version="1.0" xmlns="http://www.w3.org/2000/svg"
 width="792.000000pt" height="792.000000pt" viewBox="0 0 792.000000 792.000000"
 preserveAspectRatio="xMidYMid meet">
<metadata>
Created by potrace 1.14, written by Peter Selinger 2001-2017
</metadata>
<g transform="translate(0.000000,792.000000) scale(0.100000,-0.100000)"
fill="#000000" stroke="none">
<path d="M3644 7100 c-28 -4 -78 -10 -110 -14 -33 -4 -70 -8 -84 -10 -87 -13
-108 -16 -130 -21 -23 -4 -69 -13 -111 -20 -8 -2 -39 -10 -67 -19 -29 -8 -53
-15 -55 -14 -5 1 -94 -24 -117 -33 -27 -10 -67 -20 -87 -21 -7 -1 -13 -4 -13
-8 0 -5 -71 -27 -105 -32 -5 -1 -16 -8 -23 -15 -12 -12 -34 -17 -54 -14 -5 0
-8 -4 -8 -9 0 -6 -9 -10 -19 -10 -11 0 -23 -5 -26 -10 -4 -6 -11 -8 -16 -5 -5
4 -9 1 -9 -4 0 -6 -6 -11 -14 -11 -25 0 -386 -189 -414 -216 -6 -7 -21 -16
-32 -19 -11 -3 -20 -11 -20 -16 0 -5 -5 -9 -10 -9 -12 0 -71 -40 -82 -55 -4
-5 -8 -7 -8 -2 0 6 -8 0 -61 -48 -9 -8 -20 -15 -25 -15 -5 0 -26 -16 -47 -35
-21 -19 -41 -35 -45 -35 -4 0 -14 -9 -22 -20 -8 -11 -20 -20 -27 -20 -7 0 -13
-4 -13 -8 0 -5 -18 -21 -39 -38 -22 -16 -37 -32 -34 -36 2 -5 0 -8 -5 -8 -15
0 -262 -251 -262 -265 0 -3 -16 -21 -35 -39 -19 -19 -35 -38 -35 -43 0 -4 -20
-31 -45 -58 -25 -28 -45 -55 -45 -60 0 -6 -11 -23 -25 -38 -14 -15 -22 -27
-18 -27 4 0 3 -4 -2 -8 -19 -13 -55 -69 -48 -76 3 -3 1 -6 -5 -6 -6 0 -30 -33
-53 -72 -23 -40 -51 -89 -63 -108 -11 -19 -21 -37 -21 -40 -1 -3 -14 -30 -30
-60 -49 -92 -74 -150 -67 -150 4 0 2 -4 -4 -8 -5 -4 -21 -36 -34 -72 -13 -36
-28 -71 -33 -77 -5 -7 -7 -13 -3 -13 4 0 -3 -18 -14 -40 -11 -22 -18 -40 -15
-40 2 0 -4 -22 -15 -49 -10 -27 -16 -52 -13 -55 4 -3 -19 -6 -49 -6 -119 0
-295 -10 -328 -18 -96 -25 -162 -76 -203 -157 -33 -66 -37 -94 -37 -258 0
-106 -3 -136 -13 -131 -9 5 -9 4 1 -7 7 -7 12 -39 12 -74 0 -35 -5 -67 -12
-74 -10 -11 -10 -12 -1 -7 18 10 18 -451 0 -473 -7 -9 -8 -12 -1 -8 10 6 16
-28 27 -160 1 -11 5 -19 10 -16 4 2 10 -4 14 -14 3 -10 16 -32 29 -49 13 -17
20 -34 17 -38 -4 -3 0 -6 8 -6 9 0 24 -6 34 -14 16 -12 17 -16 6 -30 -9 -11
-10 -16 -2 -16 6 0 11 5 11 10 0 14 32 12 53 -5 11 -7 25 -11 32 -8 9 3 13 -2
12 -16 -1 -12 -5 -21 -10 -21 -5 0 -7 6 -4 13 3 8 -1 14 -8 14 -7 0 -11 -7 -8
-14 3 -8 2 -13 -3 -12 -36 6 -54 -25 -24 -41 14 -7 20 -7 20 0 0 5 -7 10 -16
10 -8 0 -12 5 -9 11 4 6 10 8 13 5 3 -3 11 -1 18 5 10 8 13 5 12 -13 -1 -13
-5 -28 -10 -35 -9 -12 9 -30 19 -19 4 3 1 6 -6 6 -7 0 -10 4 -6 10 3 5 12 7
20 4 8 -4 12 -11 8 -18 -4 -7 -1 -7 9 1 15 13 28 8 28 -9 0 -5 -4 -6 -10 -3
-5 3 -10 2 -10 -2 0 -5 9 -14 19 -20 15 -10 20 -9 25 2 3 9 0 12 -10 8 -12 -4
-11 1 3 25 12 21 20 27 25 19 11 -17 10 -29 -2 -22 -6 3 -5 -6 2 -20 7 -15 14
-22 16 -16 2 6 8 8 13 5 6 -3 5 -12 -3 -22 -7 -10 -9 -14 -4 -10 5 4 15 0 24
-9 14 -14 17 -14 28 2 7 9 10 24 6 33 -5 14 -3 15 9 5 12 -9 18 -10 27 -1 8 8
11 5 9 -11 -1 -13 -6 -20 -14 -17 -7 3 -13 1 -13 -4 0 -14 24 -12 38 2 7 7 12
8 12 4 0 -5 16 4 35 18 19 15 35 23 35 17 0 -5 -14 -19 -31 -31 -16 -12 -27
-25 -24 -28 3 -4 10 0 16 8 8 13 10 13 20 0 9 -13 10 -12 5 2 -6 20 10 35 17
16 2 -7 8 -9 13 -5 5 4 2 12 -6 17 -8 6 -10 10 -4 10 6 0 11 7 11 15 0 8 -5
11 -10 8 -6 -4 -7 -1 -2 7 5 9 4 11 -3 6 -7 -4 -20 7 -33 26 -17 28 -20 29
-14 8 5 -19 4 -22 -4 -10 -7 9 -11 11 -11 3 0 -8 -11 -11 -30 -8 -18 2 -30 -1
-30 -8 0 -7 -5 -4 -11 6 -5 9 -15 17 -22 17 -7 0 -6 -4 3 -10 12 -7 10 -9 -7
-7 -12 0 -19 5 -16 11 3 5 1 6 -5 2 -7 -4 -18 -3 -25 1 -12 7 -11 13 4 38 11
17 19 24 19 16 0 -9 4 -10 12 -4 7 5 27 9 43 9 24 -1 29 -5 27 -21 -3 -15 -1
-17 10 -7 11 9 17 9 26 0 9 -9 12 -9 12 0 0 6 -8 16 -18 21 -9 6 -12 11 -6 11
5 0 15 -5 22 -12 9 -9 12 -9 12 -1 0 7 12 10 28 9 19 -2 27 -9 27 -22 0 -11 4
-25 8 -31 5 -7 5 -13 0 -13 -4 0 -2 -4 6 -9 12 -8 12 -13 3 -24 -10 -12 -9
-16 4 -21 15 -6 15 -8 0 -31 -9 -14 -12 -25 -6 -25 5 0 10 5 10 10 0 6 5 10
11 10 5 0 7 -4 4 -10 -3 -6 -1 -10 5 -10 7 0 9 -7 6 -17 -4 -9 -2 -19 4 -23 6
-4 12 -20 13 -37 1 -17 5 -29 10 -26 6 3 9 -19 6 -43 0 -4 3 -10 8 -13 9 -6
42 -92 50 -128 3 -13 9 -23 13 -23 4 0 11 -12 15 -27 3 -16 20 -57 37 -93 17
-36 37 -78 44 -95 8 -16 18 -37 23 -45 5 -8 12 -22 16 -30 3 -8 11 -24 18 -35
7 -11 27 -47 46 -80 19 -33 39 -63 45 -67 7 -5 7 -8 1 -8 -6 0 -6 -3 0 -8 6
-4 25 -29 43 -57 51 -79 55 -85 149 -210 24 -31 103 -126 138 -164 84 -92 305
-307 305 -296 0 3 8 -3 18 -12 26 -26 87 -76 113 -93 12 -8 31 -23 41 -32 10
-10 21 -18 24 -18 3 0 23 -13 44 -30 21 -16 42 -30 48 -30 5 0 13 -7 16 -16 3
-8 10 -12 16 -9 5 3 10 1 10 -4 0 -6 6 -11 14 -11 7 0 19 -7 26 -15 13 -15
111 -73 121 -71 4 0 15 -6 25 -14 11 -9 37 -25 59 -35 22 -11 42 -23 43 -27 2
-5 8 -8 12 -8 5 0 42 -15 82 -34 166 -77 281 -122 428 -168 108 -34 292 -78
301 -72 5 3 9 1 9 -3 0 -5 39 -15 88 -22 91 -14 108 -17 157 -25 78 -14 219
-21 420 -20 249 0 374 9 545 40 14 2 41 7 60 10 19 3 51 9 70 14 19 5 51 12
70 15 45 9 65 13 65 15 0 1 7 3 15 5 8 2 33 9 55 15 22 6 48 12 57 15 9 2 26
9 37 15 12 6 21 9 21 6 0 -5 108 32 125 42 6 4 17 7 25 9 17 2 85 30 122 49
15 8 30 15 33 15 2 0 22 7 42 16 21 9 40 17 43 18 18 5 66 31 72 40 4 5 8 6 8
2 0 -5 14 1 30 13 17 12 30 18 30 13 0 -4 4 -3 8 4 4 6 14 13 21 15 8 2 23 10
33 18 10 8 20 13 22 10 2 -3 13 4 25 14 12 11 21 15 21 10 0 -5 4 -4 8 1 10
15 70 55 80 55 5 0 15 7 22 15 7 9 15 13 17 11 4 -4 36 20 69 52 8 7 14 10 14
5 0 -4 7 1 16 12 8 11 17 18 19 15 3 -3 19 9 37 25 18 17 28 23 24 15 -7 -13
-6 -13 6 0 7 8 36 33 63 55 28 22 52 43 53 47 2 5 7 8 12 8 17 0 267 242 350
339 25 29 50 58 55 65 28 31 123 155 139 181 11 16 28 38 38 49 10 11 18 24
18 29 0 5 9 21 21 35 35 46 71 106 81 134 6 16 13 28 17 28 4 0 18 23 31 50
13 28 28 50 33 50 6 0 8 3 4 6 -3 3 9 34 26 68 17 33 32 63 33 66 0 3 9 23 19
45 31 70 38 90 37 98 -1 4 3 7 10 7 6 0 8 3 5 6 -3 4 -1 16 5 28 7 11 13 23
13 26 10 39 19 59 26 54 5 -3 6 2 3 11 -4 9 -2 26 4 38 6 12 20 54 32 92 12
39 24 77 28 85 3 8 6 20 7 25 5 38 18 74 29 78 14 6 40 -29 31 -43 -3 -5 -1
-11 4 -15 6 -3 8 -12 5 -19 -3 -7 2 -18 10 -25 12 -10 17 -7 30 16 12 24 15
25 21 11 4 -10 14 -18 22 -18 11 0 8 6 -8 20 -29 24 -18 26 17 4 22 -15 24
-15 18 0 -5 12 -2 15 10 10 9 -3 13 -10 10 -15 -3 -5 2 -6 10 -3 9 3 16 1 16
-6 0 -6 5 -8 12 -4 8 5 9 2 5 -10 -4 -11 -3 -15 4 -11 6 4 8 14 5 22 -4 9 -1
13 6 10 7 -2 12 -10 10 -16 -1 -7 2 -10 8 -6 5 3 10 1 10 -6 0 -7 3 -9 6 -6 4
4 1 13 -6 22 -14 17 0 21 18 3 8 -8 8 -17 1 -32 -9 -18 -7 -17 9 3 12 14 22
20 26 13 3 -6 1 -12 -6 -14 -7 -3 -5 -7 6 -11 10 -4 15 -3 11 3 -3 6 1 10 10
10 9 0 13 -5 10 -10 -3 -6 -1 -10 5 -10 6 0 9 8 6 18 -4 13 -1 18 14 18 13 0
19 -5 15 -14 -2 -7 -1 -11 4 -7 5 3 11 0 13 -7 3 -8 14 -5 36 11 18 12 32 18
32 12 0 -6 -9 -16 -20 -23 -11 -7 -20 -17 -20 -22 0 -4 7 -3 15 4 10 9 15 9
15 1 0 -6 5 -11 11 -11 8 0 8 5 -1 15 -18 22 15 32 35 11 9 -9 23 -16 31 -16
9 0 12 -5 8 -12 -4 -7 -3 -8 5 -4 14 9 5 26 -15 26 -8 0 -14 5 -14 11 0 5 5 7
12 3 6 -4 8 -3 5 2 -3 6 -2 16 3 24 5 9 5 19 -2 27 -7 8 -7 13 0 13 19 0 32
-26 19 -39 -9 -11 -9 -14 1 -18 6 -3 10 -9 7 -13 -3 -5 5 -14 17 -20 22 -11
22 -10 4 4 -11 9 -16 16 -12 16 5 0 3 6 -3 14 -14 17 3 32 32 28 9 -2 17 1 17
6 0 5 -11 8 -25 7 -14 -2 -27 1 -31 6 -3 5 0 9 6 9 7 0 9 7 6 16 -3 8 -2 12 4
9 6 -3 10 -2 10 4 0 6 6 8 14 5 10 -4 14 1 13 15 -1 18 -3 19 -17 6 -9 -8 -23
-15 -30 -15 -9 0 -8 4 5 13 17 13 17 14 -1 12 -11 0 -26 -5 -33 -10 -10 -6
-12 -4 -6 6 7 12 5 12 -6 1 -9 -9 -10 -15 -3 -20 6 -4 4 -13 -8 -24 -11 -11
-18 -13 -18 -6 0 6 -7 3 -15 -8 -15 -19 -15 -19 -8 0 5 16 3 18 -11 13 -10 -4
-26 -2 -36 3 -16 8 -18 7 -14 -4 3 -8 16 -13 28 -12 16 2 22 -2 21 -15 -1 -10
-5 -22 -10 -26 -4 -5 -5 -2 0 6 6 10 4 12 -5 6 -8 -5 -11 -4 -7 2 3 5 0 10 -8
10 -8 0 -12 -4 -9 -9 3 -4 -2 -5 -10 -2 -9 3 -16 1 -16 -6 0 -6 -5 -8 -11 -4
-8 5 -8 9 1 14 9 5 9 9 1 14 -6 4 -11 2 -11 -3 0 -6 -4 -11 -10 -11 -5 0 -9 3
-9 8 1 4 1 14 0 22 -1 13 -2 13 -11 0 -8 -13 -10 -13 -10 -1 0 11 -4 9 -15 -5
-13 -18 -14 -18 -8 5 4 17 3 22 -6 17 -6 -4 -9 -11 -7 -15 3 -3 -3 -7 -12 -8
-9 -1 -30 -3 -46 -5 -18 -2 -31 2 -34 11 -3 10 0 11 9 5 21 -13 39 -14 39 -2
0 6 -7 7 -16 4 -9 -3 -12 -2 -9 4 4 6 13 9 20 8 8 -2 14 2 14 7 0 6 -7 9 -16
7 -11 -2 -14 1 -10 12 5 14 3 15 -13 6 -14 -8 -26 -8 -40 0 -16 9 -18 8 -14
-5 4 -8 1 -15 -5 -15 -6 0 -10 5 -8 11 1 6 -9 13 -23 15 -17 3 -21 1 -12 -5
11 -6 10 -9 -3 -15 -23 -8 -25 -8 -22 5 1 6 -5 14 -13 16 -9 3 -11 1 -5 -4 6
-4 11 -15 13 -23 2 -13 1 -13 -10 0 -7 8 -21 16 -32 18 -14 3 -17 -1 -12 -15
5 -16 4 -15 -9 2 -9 11 -20 20 -25 20 -4 0 -12 4 -17 9 -4 5 -3 7 2 3 27 -15
53 35 32 61 -6 7 -6 12 -1 10 13 -3 55 22 50 30 -3 5 0 14 6 22 8 12 9 12 4
-2 -3 -11 0 -18 7 -18 8 0 6 -4 -3 -10 -13 -8 -12 -10 4 -10 11 0 16 -5 13
-13 -3 -7 1 -21 9 -31 7 -11 11 -23 8 -27 -6 -10 -1 -11 111 -13 44 0 86 -5
93 -9 7 -5 12 -3 12 5 0 9 3 9 10 -2 9 -13 10 -13 10 0 1 9 6 6 14 -9 10 -19
14 -20 19 -8 3 9 1 17 -5 19 -6 2 56 4 138 4 146 1 149 1 150 22 1 12 -3 22
-9 22 -5 0 -4 6 2 14 9 11 9 16 0 22 -8 4 -9 3 -5 -4 4 -7 3 -12 -1 -12 -14 0
-45 78 -37 91 4 7 3 9 -3 6 -8 -5 -81 140 -76 153 1 3 -4 12 -11 20 -7 8 -19
31 -26 50 -7 19 -18 41 -23 48 -6 8 -6 12 2 12 6 0 11 -5 11 -12 0 -8 6 -6 17
4 15 16 17 16 30 0 13 -15 13 -14 3 6 -6 12 -15 20 -21 17 -5 -4 -9 -2 -9 3 0
16 13 22 27 11 8 -8 13 -8 13 -1 0 6 -5 12 -12 14 -8 3 -8 10 4 26 8 12 18 19
22 15 4 -4 4 1 0 11 -6 16 -11 12 -32 -23 -13 -22 -29 -41 -35 -41 -8 0 -8 3
0 11 6 6 9 18 6 27 -5 11 -3 13 8 7 8 -4 11 -5 8 -1 -4 4 3 18 15 31 l21 24
18 -22 18 -22 -12 25 c-7 14 -16 28 -22 31 -6 4 -5 13 2 25 10 18 12 17 15 -8
0 -6 8 -13 16 -15 13 -4 13 -3 0 6 -8 6 -11 11 -7 11 5 0 1 10 -7 21 -16 23
-11 52 8 43 6 -3 0 4 -13 15 -15 14 -18 21 -9 21 8 0 20 -6 27 -12 11 -11 11
-9 0 9 -7 12 -16 20 -20 17 -17 -10 -37 8 -32 29 3 12 5 30 5 40 -1 9 3 17 8
17 5 0 16 3 24 6 13 5 15 2 10 -12 -8 -21 -6 -19 16 11 8 11 11 17 6 13 -5 -4
-18 -3 -29 3 -14 8 -18 8 -13 0 4 -6 3 -11 -2 -11 -5 0 -9 14 -10 31 l-1 31
20 -21 c11 -11 25 -21 30 -21 6 0 1 8 -12 19 -19 16 -21 21 -11 34 11 13 10
16 -7 22 -12 3 -21 11 -21 16 0 12 17 12 25 -1 3 -6 11 -10 18 -10 6 0 3 6 -8
13 -13 10 -15 16 -6 21 9 6 7 12 -7 24 -22 20 -26 68 -6 70 8 1 21 3 29 4 8 1
12 5 9 10 -3 4 -14 4 -24 -2 -10 -6 -21 -6 -24 -2 -6 10 -2 39 7 48 4 4 7 12
7 18 0 6 -4 5 -9 -2 -5 -8 -8 18 -9 63 -1 41 3 73 7 71 4 -3 8 1 8 8 0 8 -7
12 -15 8 -9 -3 -13 -1 -9 4 8 14 -13 106 -29 125 -8 9 -12 18 -9 21 10 10 -85
98 -123 114 -67 29 -105 35 -276 39 -93 3 -171 7 -173 9 -2 2 -22 54 -43 116
-22 62 -46 128 -56 148 -9 19 -17 40 -19 46 -9 43 -137 296 -199 395 -15 22
-26 43 -26 47 0 3 -6 12 -12 19 -30 33 -37 43 -32 47 2 3 -7 17 -20 31 -14 15
-22 27 -18 27 4 0 2 4 -4 8 -5 4 -30 35 -53 70 -24 34 -48 62 -52 62 -5 0 -9
5 -9 11 0 10 -50 72 -140 173 -53 59 -264 266 -272 266 -3 0 -25 18 -47 40
-22 22 -43 40 -46 40 -6 0 -13 6 -57 44 -15 14 -41 33 -58 42 -16 10 -30 22
-30 26 0 4 -5 8 -11 8 -6 0 -17 6 -24 13 -35 30 -45 37 -45 30 0 -4 -4 -3 -8
3 -10 15 -122 85 -122 76 0 -4 -4 -2 -8 4 -4 7 -25 22 -47 35 -74 42 -160 89
-175 95 -8 4 -45 21 -82 40 -38 18 -68 31 -68 27 0 -3 -6 -1 -12 4 -12 9 -126
57 -138 58 -3 0 -16 7 -30 15 -14 7 -26 13 -27 12 -3 -2 -12 1 -78 23 -27 9
-63 21 -80 25 -16 5 -66 18 -110 30 -44 12 -89 24 -100 26 -11 2 -31 6 -45 9
-54 12 -117 24 -155 29 -23 4 -52 8 -65 11 -14 3 -50 7 -80 10 -30 4 -71 9
-90 12 -54 8 -519 10 -576 3z m3482 -2704 c0 -14 -3 -23 -7 -20 -6 3 -6 22 0
42 3 10 7 -2 7 -22z m524 -177 c0 -5 -4 -9 -10 -9 -5 0 -10 7 -10 16 0 8 5 12
10 9 6 -3 10 -10 10 -16z m0 -59 c0 -5 -4 -10 -10 -10 -5 0 -10 5 -10 10 0 6
5 10 10 10 6 0 10 -4 10 -10z m-26 -195 c-4 -10 0 -15 11 -15 9 0 13 -5 10
-11 -6 -9 -10 -27 -19 -83 -1 -11 -15 -32 -30 -47 -16 -15 -25 -32 -22 -38 4
-5 1 -13 -4 -16 -8 -5 -6 -13 6 -26 9 -10 13 -19 7 -19 -13 0 -50 29 -38 30 6
0 5 4 -2 8 -6 4 -13 16 -15 27 -1 11 -7 23 -12 27 -27 19 -8 72 21 61 12 -5
14 -3 8 7 -6 9 -4 11 5 5 10 -6 12 -4 7 9 -4 10 -3 15 3 11 6 -3 10 2 10 13 0
10 3 21 6 25 8 8 34 -3 34 -15 0 -7 -5 -7 -13 0 -10 8 -13 6 -14 -9 -1 -10 3
-19 8 -19 6 0 7 -5 3 -11 -4 -8 -9 -7 -15 2 -5 8 -9 10 -9 6 0 -5 9 -21 21
-35 l20 -26 -5 27 c-3 15 -1 25 4 22 4 -3 10 2 13 10 4 10 1 12 -10 8 -14 -5
-13 -3 1 20 13 19 14 27 5 33 -8 5 -10 3 -4 -7 8 -12 6 -12 -8 0 -19 15 -23
26 -5 15 8 -5 9 -2 5 9 -4 11 -1 17 8 17 9 0 12 -6 9 -15z m-503 -519 c5 3 9
2 8 -3 -4 -21 2 -34 12 -27 8 4 7 0 -1 -15 -6 -12 -15 -19 -21 -16 -5 4 -9 2
-9 -4 0 -5 5 -11 12 -13 8 -3 7 -6 -3 -10 -12 -5 -15 5 -15 49 0 30 2 50 4 44
2 -6 8 -9 13 -5z m-6641 -182 c0 5 8 2 17 -5 15 -12 16 -12 9 6 -5 15 -4 17 5
8 6 -6 18 -9 25 -6 21 8 17 -7 -12 -49 -19 -27 -30 -35 -39 -28 -6 5 -15 7
-18 3 -4 -3 -7 -1 -7 6 0 7 -4 9 -10 6 -6 -4 -7 1 -3 11 5 13 3 15 -8 10 -8
-4 -3 2 10 13 13 12 18 21 12 21 -7 0 -9 5 -5 11 4 8 9 7 15 -2 5 -8 9 -10 9
-5z m6745 -23 c-8 -14 14 -24 28 -14 15 10 41 10 45 0 1 -4 -1 -7 -5 -8 -5 -1
-16 -5 -27 -11 -14 -8 -17 -7 -11 3 5 8 4 10 -4 5 -6 -4 -9 -12 -5 -17 3 -5 9
-7 14 -4 4 3 13 -2 20 -10 15 -18 9 -19 -24 -4 -13 6 -27 21 -31 33 -4 13 -8
16 -12 8 -2 -6 -10 -9 -15 -6 -7 4 -8 2 -4 -5 4 -6 12 -9 17 -6 5 4 9 2 9 -4
0 -18 -19 -22 -28 -5 -8 14 -12 12 -30 -11 -12 -15 -22 -32 -22 -37 0 -5 -5
-6 -11 -3 -6 4 -8 13 -5 20 2 7 -1 18 -7 25 -9 10 -9 11 1 6 9 -6 11 -1 8 19
-5 26 -5 26 20 10 23 -15 27 -15 52 4 30 23 36 25 27 12z m402 3 c-3 -4 -2
-15 3 -25 7 -12 7 -20 0 -24 -5 -3 -10 -1 -10 6 0 8 -4 8 -15 -1 -11 -9 -12
-16 -5 -25 6 -8 5 -17 -3 -30 -11 -14 -17 -16 -35 -6 -18 10 -20 15 -12 32 6
11 14 17 19 15 7 -5 44 32 47 47 3 15 4 17 11 17 3 0 3 -3 0 -6z m-7039 -61
c15 -3 32 -5 37 -4 93 11 134 -1 100 -29 -8 -7 -15 -9 -15 -4 0 5 -4 3 -9 -5
-5 -8 -17 -16 -25 -17 -9 -1 -14 2 -10 7 10 16 -6 31 -21 19 -10 -8 -16 -7
-24 7 -10 18 -12 16 -16 -25 -3 -31 -10 -35 -26 -15 -12 15 -12 16 6 9 16 -6
15 -3 -5 16 -14 13 -28 19 -32 14 -3 -5 -5 2 -5 17 1 14 5 23 10 20 4 -2 20
-7 35 -10z m6787 -3 c4 -6 12 -7 18 -3 17 11 38 13 32 3 -3 -5 3 -14 12 -20
14 -9 15 -10 2 -7 -9 3 -22 0 -28 -6 -10 -9 -15 -8 -25 6 -15 19 -31 24 -20 5
5 -9 3 -9 -9 1 -9 7 -14 17 -11 22 7 12 21 11 29 -1z m142 -35 c4 -4 3 -5 -3
-2 -7 4 -15 -1 -18 -10 -5 -12 -10 -13 -17 -6 -6 6 -8 16 -5 21 7 12 32 10 43
-3z"/>
<path d="M7556 3861 c-5 -7 -14 -10 -22 -7 -22 8 -28 -14 -8 -30 18 -13 18
-14 -1 -8 -18 5 -18 5 -2 -6 9 -6 14 -16 11 -22 -5 -7 -2 -8 5 -4 8 5 11 3 9
-5 -1 -8 2 -14 7 -14 6 0 9 4 7 9 -2 5 6 19 18 31 20 22 20 22 2 45 -14 17
-21 20 -26 11z m19 -22 c-4 -5 -1 -9 6 -9 8 0 5 -7 -6 -20 -20 -22 -32 -19
-30 7 1 26 15 44 26 37 5 -3 7 -10 4 -15z"/>
<path d="M7116 3407 c3 -10 9 -15 12 -12 3 3 0 11 -7 18 -10 9 -11 8 -5 -6z"/>
<path d="M474 3247 c-3 -9 -11 -14 -18 -11 -6 4 0 -4 14 -18 l25 -25 23 31
c27 36 27 40 4 27 -13 -7 -22 -7 -30 1 -8 8 -13 7 -18 -5z m42 -9 c4 4 3 -1
-5 -10 -7 -10 -19 -14 -29 -11 -10 4 -12 8 -4 11 7 2 9 9 5 15 -5 8 -2 8 9 0
8 -7 19 -9 24 -5z"/>
<path d="M7144 3200 c0 -13 4 -16 10 -10 7 7 7 13 0 20 -6 6 -10 3 -10 -10z"/>
<path d="M7570 3159 c13 -23 22 -25 13 -2 -5 12 -3 14 8 8 8 -5 11 -4 6 0 -4
5 -14 10 -22 11 -12 2 -12 -2 -5 -17z"/>
<path d="M567 3163 c4 -11 8 -12 13 -3 6 9 9 9 13 1 4 -8 5 -8 3 0 -1 7 -9 13
-18 15 -11 1 -15 -3 -11 -13z"/>
<path d="M639 3163 c-12 -16 -12 -17 2 -5 13 10 19 9 29 -3 7 -8 17 -12 24 -8
6 4 14 8 19 8 4 0 7 5 7 10 0 13 -21 14 -37 2 -9 -6 -13 -6 -13 2 0 17 -16 13
-31 -6z"/>
<path d="M7396 3171 c-4 -5 -2 -12 3 -15 5 -4 12 -2 15 3 4 5 2 12 -3 15 -5 4
-12 2 -15 -3z"/>
<path d="M7675 4580 c-3 -5 -1 -10 4 -10 6 0 11 5 11 10 0 6 -2 10 -4 10 -3 0
-8 -4 -11 -10z"/>
<path d="M7695 4480 c3 -5 8 -10 11 -10 2 0 4 5 4 10 0 6 -5 10 -11 10 -5 0
-7 -4 -4 -10z"/>
<path d="M7653 4418 c-4 -7 -1 -8 7 -3 9 6 12 4 8 -7 -4 -8 -1 -15 7 -15 8 0
11 7 7 15 -4 11 -1 13 9 7 8 -5 11 -4 6 0 -12 13 -36 15 -44 3z"/>
<path d="M7700 4360 c8 -5 20 -10 25 -10 6 0 3 5 -5 10 -8 5 -19 10 -25 10 -5
0 -3 -5 5 -10z"/>
<path d="M7645 4340 c-3 -5 -2 -10 4 -10 5 0 13 5 16 10 3 6 2 10 -4 10 -5 0
-13 -4 -16 -10z"/>
<path d="M7713 4325 c0 -8 4 -12 9 -9 5 3 6 10 3 15 -9 13 -12 11 -12 -6z"/>
<path d="M7670 4291 c0 -6 5 -13 12 -17 6 -4 8 -3 4 4 -3 5 0 13 6 15 8 3 6 6
-4 6 -10 1 -18 -3 -18 -8z"/>
<path d="M7645 4281 c-6 -11 13 -26 22 -17 4 3 1 6 -6 6 -7 0 -9 5 -6 10 3 6
4 10 1 10 -3 0 -7 -4 -11 -9z"/>
<path d="M7660 4246 c0 -2 7 -7 16 -10 8 -3 12 -2 9 4 -6 10 -25 14 -25 6z"/>
<path d="M7716 4195 c-3 -9 -11 -13 -17 -9 -8 5 -9 3 -4 -5 6 -10 11 -9 23 3
9 8 13 18 10 21 -3 3 -8 -1 -12 -10z"/>
<path d="M156 4153 c-6 -14 -5 -15 5 -6 7 7 10 15 7 18 -3 3 -9 -2 -12 -12z"/>
<path d="M7676 4155 c-9 -26 -7 -32 5 -12 6 10 9 21 6 23 -2 3 -7 -2 -11 -11z"/>
<path d="M7693 4137 c-4 -6 -1 -7 7 -2 10 6 12 4 7 -8 -9 -23 0 -22 12 1 8 14
6 19 -5 19 -8 0 -18 -5 -21 -10z"/>
<path d="M7745 4080 c10 -11 20 -20 23 -20 3 0 -3 9 -13 20 -10 11 -20 20 -23
20 -3 0 3 -9 13 -20z"/>
<path d="M7715 4070 c-4 -6 -11 -7 -17 -4 -7 4 -8 2 -4 -5 6 -9 11 -9 22 0 14
11 18 19 10 19 -3 0 -8 -5 -11 -10z"/>
<path d="M7635 4050 c4 -6 2 -16 -4 -23 -17 -22 1 -37 24 -20 19 15 19 15 -5
8 -20 -6 -23 -5 -12 6 15 16 16 39 1 39 -5 0 -7 -5 -4 -10z"/>
<path d="M7671 4040 c-9 -5 -4 -7 13 -7 29 0 32 2 13 10 -8 3 -20 2 -26 -3z"/>
<path d="M7670 3991 c0 -6 5 -13 12 -17 7 -5 8 -3 3 6 -6 10 -4 12 9 7 10 -4
15 -3 11 3 -8 13 -35 13 -35 1z"/>
<path d="M7709 3943 c-13 -16 -12 -17 4 -4 16 13 21 21 13 21 -2 0 -10 -8 -17
-17z"/>
<path d="M7671 3920 c-9 -5 -4 -7 13 -7 29 0 32 2 13 10 -8 3 -20 2 -26 -3z"/>
<path d="M7686 3845 c-11 -8 -15 -15 -9 -15 6 0 16 7 23 15 16 19 11 19 -14 0z"/>
<path d="M7654 3775 c-4 -8 -11 -12 -17 -8 -6 3 -7 1 -3 -5 10 -16 14 -15 26
8 6 11 8 20 5 20 -3 0 -8 -7 -11 -15z"/>
<path d="M7666 3741 c-3 -4 6 -7 19 -7 14 0 22 2 19 5 -8 8 -34 10 -38 2z"/>
<path d="M156 3673 c-6 -14 -5 -15 5 -6 7 7 10 15 7 18 -3 3 -9 -2 -12 -12z"/>
<path d="M7590 3685 c0 -2 10 -10 23 -16 20 -11 21 -11 8 4 -13 16 -31 23 -31
12z"/>
<path d="M7713 3675 c0 -8 4 -12 9 -9 5 3 6 10 3 15 -9 13 -12 11 -12 -6z"/>
<path d="M7587 3659 c7 -7 15 -10 18 -7 3 3 -2 9 -12 12 -14 6 -15 5 -6 -5z"/>
<path d="M7635 3642 c3 -3 0 -10 -5 -17 -7 -8 -5 -12 5 -12 8 0 13 3 10 5 -3
3 0 10 5 17 7 8 5 12 -5 12 -8 0 -13 -3 -10 -5z"/>
<path d="M7633 3575 c0 -8 4 -12 9 -9 5 3 6 10 3 15 -9 13 -12 11 -12 -6z"/>
<path d="M7656 3527 c3 -10 9 -15 12 -12 3 3 0 11 -7 18 -10 9 -11 8 -5 -6z"/>
<path d="M230 3416 c0 -2 8 -10 18 -17 15 -13 16 -12 3 4 -13 16 -21 21 -21
13z"/>
<path d="M7713 3405 c0 -8 4 -15 9 -15 4 0 8 4 8 9 0 6 -4 12 -8 15 -5 3 -9
-1 -9 -9z"/>
<path d="M7145 3339 c4 -6 0 -9 -10 -7 -11 2 -19 -4 -20 -15 -2 -9 1 -15 6
-11 5 3 9 0 9 -6 0 -6 5 -8 10 -5 6 4 7 12 3 18 -4 7 1 6 10 -2 18 -14 15 -26
-6 -26 -7 -1 -11 -7 -9 -14 1 -7 -2 -10 -8 -6 -6 3 -8 11 -5 16 4 5 2 9 -3 9
-8 0 -22 -22 -22 -34 0 -5 36 0 47 7 6 4 18 4 26 1 18 -6 17 10 -1 42 -6 12
-9 24 -6 26 3 3 -2 8 -11 12 -10 3 -14 2 -10 -5z"/>
<path d="M275 3321 c-3 -5 -2 -12 3 -15 5 -3 9 1 9 9 0 17 -3 19 -12 6z"/>
<path d="M316 3315 c-11 -8 -15 -15 -9 -15 6 0 16 7 23 15 16 19 11 19 -14 0z"/>
<path d="M366 3292 c-2 -4 -1 -14 4 -22 7 -11 12 -12 21 -3 6 6 8 16 5 22 -8
13 -23 14 -30 3z m24 -12 c0 -5 -2 -10 -4 -10 -3 0 -8 5 -11 10 -3 6 -1 10 4
10 6 0 11 -4 11 -10z"/>
<path d="M340 3271 c0 -7 -5 -9 -12 -5 -7 5 -8 3 -3 -5 5 -9 10 -10 18 -2 6 6
8 14 4 18 -4 3 -7 1 -7 -6z"/>
<path d="M250 3259 c0 -5 5 -7 10 -4 6 3 10 8 10 11 0 2 -4 4 -10 4 -5 0 -10
-5 -10 -11z"/>
<path d="M575 3236 c-14 -20 -14 -20 -9 -1 5 16 4 17 -5 5 -17 -24 -13 -31 18
-25 17 3 32 1 35 -3 6 -10 62 -9 72 0 10 11 -7 29 -19 21 -21 -13 -35 -12 -41
4 -3 7 -2 11 3 8 5 -3 12 -2 15 3 12 19 -55 7 -69 -12z m16 -9 c-10 -9 -11 -8
-5 6 3 10 9 15 12 12 3 -3 0 -11 -7 -18z"/>
<path d="M715 3251 c-9 -8 -5 -21 6 -21 5 0 7 5 3 12 -4 7 -3 8 5 4 8 -6 9
-12 2 -20 -8 -9 -6 -18 4 -32 8 -10 15 -15 15 -10 0 5 8 2 18 -5 15 -13 16
-12 3 4 -7 9 -10 17 -6 17 4 0 3 6 -2 13 -6 6 -9 19 -8 27 2 14 -29 23 -40 11z
m40 -40 c3 -5 0 -13 -6 -17 -7 -4 -9 -3 -5 4 3 5 0 13 -6 15 -9 4 -10 6 -1 6
6 1 14 -3 18 -8z"/>
<path d="M7324 3248 c-3 -5 -2 -8 3 -7 4 1 16 -1 26 -6 17 -7 17 -8 0 -22 -16
-13 -15 -13 7 -1 14 7 30 11 35 9 6 -2 16 -4 23 -5 8 -1 18 -9 24 -17 8 -11 9
-9 4 6 -5 16 -3 16 13 -5 11 -14 23 -21 27 -17 4 4 2 7 -3 7 -21 0 -6 33 16
37 13 2 20 -1 16 -7 -3 -5 -1 -10 4 -10 6 0 11 5 11 11 0 8 4 8 13 2 20 -15
40 -9 42 13 1 18 -4 20 -54 19 -36 0 -55 -5 -54 -12 4 -18 -27 -24 -34 -8 -5
13 -7 13 -19 -2 -13 -17 -14 -17 -8 0 4 10 3 17 -2 16 -5 -1 -11 0 -14 1 -16
6 -72 5 -76 -2z m70 -6 c3 -5 -1 -9 -9 -9 -8 0 -12 4 -9 9 3 4 7 8 9 8 2 0 6
-4 9 -8z m177 -9 c9 -9 7 -11 -7 -8 -11 2 -20 4 -21 5 -2 2 -7 3 -12 4 -22 3
-19 13 4 12 13 -1 30 -7 36 -13z"/>
<path d="M7701 3244 c0 -11 3 -14 6 -6 3 7 2 16 -1 19 -3 4 -6 -2 -5 -13z"/>
<path d="M347 3230 c-3 -11 -3 -20 -1 -20 2 0 8 9 14 20 6 11 7 20 2 20 -6 0
-12 -9 -15 -20z"/>
<path d="M294 3222 c4 -3 14 -7 22 -8 9 -1 13 0 10 4 -4 3 -14 7 -22 8 -9 1
-13 0 -10 -4z"/>
<path d="M7067 3215 c-8 -20 2 -47 16 -38 6 3 7 1 3 -6 -6 -9 -11 -9 -22 0
-12 10 -13 9 -8 -5 3 -9 12 -16 20 -16 8 0 14 -4 14 -9 0 -5 8 -12 17 -15 15
-6 16 -5 1 11 -9 10 -15 33 -15 52 2 36 -16 53 -26 26z m16 -10 c-3 -9 -8 -14
-10 -11 -3 3 -2 9 2 15 9 16 15 13 8 -4z"/>
<path d="M7736 3218 c3 -4 11 -5 19 -1 21 7 19 12 -4 10 -11 0 -18 -5 -15 -9z"/>
<path d="M7710 3211 c13 -10 13 -12 0 -22 -13 -9 -13 -10 0 -6 8 2 15 10 15
17 0 7 -7 15 -15 17 -13 4 -13 3 0 -6z"/>
<path d="M356 3202 c-3 -4 4 -9 15 -9 23 -2 25 3 4 10 -8 4 -16 3 -19 -1z"/>
<path d="M7660 3198 c0 -4 7 -8 15 -8 8 0 15 4 15 8 0 5 -7 9 -15 9 -8 0 -15
-4 -15 -9z"/>
<path d="M296 3175 c-9 -26 -7 -32 5 -12 6 10 9 21 6 23 -2 3 -7 -2 -11 -11z"/>
<path d="M7747 3179 c7 -7 15 -10 18 -7 3 3 -2 9 -12 12 -14 6 -15 5 -6 -5z"/>
<path d="M393 3165 c0 -8 4 -15 9 -15 4 0 8 4 8 9 0 6 -4 12 -8 15 -5 3 -9 -1
-9 -9z"/>
<path d="M7731 3154 c0 -11 3 -14 6 -6 3 7 2 16 -1 19 -3 4 -6 -2 -5 -13z"/>
<path d="M7152 3129 c-7 -12 -11 -24 -8 -27 3 -3 6 0 6 7 0 7 4 10 8 7 4 -2 9
4 9 15 2 24 1 24 -15 -2z"/>
<path d="M7219 3147 c-6 -19 -5 -38 1 -42 5 -3 7 4 5 15 -5 27 27 23 37 -5 6
-17 7 -17 5 4 -1 17 -9 25 -24 27 -13 2 -23 3 -24 1z"/>
<path d="M7662 3136 c10 -7 15 -16 11 -20 -4 -4 1 -4 11 0 15 6 17 4 11 -6 -5
-8 -4 -11 3 -7 12 8 10 32 -3 44 -4 4 -5 2 -1 -4 8 -15 -10 -18 -19 -3 -3 6
-12 10 -18 10 -7 0 -4 -6 5 -14z"/>
<path d="M440 3126 c7 -7 13 -7 20 0 6 6 3 10 -10 10 -13 0 -16 -4 -10 -10z"/>
<path d="M511 3113 c-10 -26 -10 -27 4 -9 8 11 15 23 15 28 0 15 -7 8 -19 -19z"/>
<path d="M7047 3133 c-4 -3 -7 -11 -7 -17 0 -6 5 -4 10 4 9 13 12 12 25 -4 8
-11 15 -15 15 -10 0 11 -20 34 -30 34 -4 0 -10 -3 -13 -7z"/>
<path d="M7317 3110 c10 -11 19 -20 21 -20 1 0 -2 9 -8 20 -6 11 -15 20 -20
20 -6 0 -2 -9 7 -20z"/>
<path d="M533 3103 c4 -6 2 -13 -5 -15 -8 -3 -6 -6 4 -10 17 -7 19 15 3 29 -4
4 -5 3 -2 -4z"/>
<path d="M7057 3104 c-14 -14 6 -31 34 -29 36 3 52 15 18 13 -39 -2 -51 1 -44
12 7 11 2 14 -8 4z"/>
<path d="M7299 3108 c-7 -23 -4 -35 7 -35 9 0 11 4 4 12 -5 7 -7 15 -3 18 3 4
3 7 0 7 -4 0 -7 -1 -8 -2z"/>
<path d="M7355 3100 c-4 -6 1 -7 11 -3 13 5 15 3 9 -7 -5 -9 -4 -11 4 -6 6 4
9 12 6 17 -8 12 -22 12 -30 -1z"/>
<path d="M7435 3099 c-11 -16 -1 -19 13 -3 7 8 8 14 3 14 -5 0 -13 -5 -16 -11z"/>
<path d="M671 3084 c0 -11 3 -14 6 -6 3 7 2 16 -1 19 -3 4 -6 -2 -5 -13z"/>
<path d="M746 3083 c-6 -14 -5 -15 5 -6 7 7 10 15 7 18 -3 3 -9 -2 -12 -12z"/>
<path d="M7399 3093 c0 -5 -2 -18 -3 -31 -2 -13 0 -25 4 -27 3 -2 6 12 7 31 0
19 -1 34 -3 34 -2 0 -4 -3 -5 -7z"/>
<path d="M7470 3085 c0 -8 2 -15 4 -15 2 0 6 7 10 15 3 8 1 15 -4 15 -6 0 -10
-7 -10 -15z"/>
<path d="M7561 3084 c0 -11 3 -14 6 -6 3 7 2 16 -1 19 -3 4 -6 -2 -5 -13z"/>
<path d="M415 3079 c-3 -4 2 -6 10 -5 21 3 28 13 10 13 -9 0 -18 -4 -20 -8z"/>
<path d="M610 3082 c0 -5 7 -9 15 -9 8 0 12 4 9 9 -3 4 -9 8 -15 8 -5 0 -9 -4
-9 -8z"/>
<path d="M7206 3078 c3 -5 10 -6 15 -3 13 9 11 12 -6 12 -8 0 -12 -4 -9 -9z"/>
<path d="M7635 3080 c-3 -5 -1 -10 4 -10 6 0 11 5 11 10 0 6 -2 10 -4 10 -3 0
-8 -4 -11 -10z"/>
<path d="M7681 3077 c-6 -6 -11 -16 -11 -21 0 -6 5 -3 10 6 6 10 19 15 32 13
11 -3 18 -1 14 2 -11 12 -34 11 -45 0z"/>
<path d="M696 3072 c-2 -4 4 -8 14 -8 10 0 16 4 14 8 -3 4 -9 8 -14 8 -5 0
-11 -4 -14 -8z"/>
<path d="M776 3071 c-4 -5 3 -7 14 -4 23 6 26 13 6 13 -8 0 -17 -4 -20 -9z"/>
<path d="M7320 3060 c-9 -6 -10 -10 -3 -10 6 0 15 5 18 10 8 12 4 12 -15 0z"/>
<path d="M7353 3053 c0 -9 4 -10 14 -2 7 6 13 12 13 14 0 1 -6 2 -13 2 -8 0
-14 -6 -14 -14z"/>
<path d="M7424 3062 c4 -3 14 -7 22 -8 9 -1 13 0 10 4 -4 3 -14 7 -22 8 -9 1
-13 0 -10 -4z"/>
<path d="M616 3047 c3 -10 9 -15 12 -12 3 3 0 11 -7 18 -10 9 -11 8 -5 -6z"/>
<path d="M735 3049 c-4 -6 -5 -12 -2 -15 2 -3 7 2 10 11 7 17 1 20 -8 4z"/>
<path d="M7520 3040 c-9 -6 -10 -10 -3 -10 6 0 15 5 18 10 8 12 4 12 -15 0z"/>
<path d="M7719 3033 c-13 -16 -12 -17 4 -4 16 13 21 21 13 21 -2 0 -10 -8 -17
-17z"/>
<path d="M7675 3031 c-3 -5 -2 -12 3 -15 5 -3 9 1 9 9 0 17 -3 19 -12 6z"/>
<path d="M7550 3026 c0 -2 7 -7 16 -10 8 -3 12 -2 9 4 -6 10 -25 14 -25 6z"/>
</g>
</svg>
